<svg width="391.917529296875px" height="122.02127685546874px" xmlns="http://www.w3.org/2000/svg" viewBox="54.041235351562506 13.98936157226563 391.917529296875 122.02127685546874" style="background: none;" preserveAspectRatio="xMidYMid"><defs><filter id="editing-vintage" x="-100%" y="-100%" width="300%" height="300%"><feConvolveMatrix in="SourceGraphic" result="extrude" order="3,3" divisor="1" kernelMatrix="1,0,0,0,1,0,0,0,1"> </feConvolveMatrix><feFlood flood-color="#000000" result="flood-extrude"></feFlood><feComposite operator="in" in="flood-extrude" in2="extrude" result="extrude-color"></feComposite><feOffset dx="2" dy="2" in="extrude-color" result="extrude-offset"></feOffset><feColorMatrix in="SourceGraphic" result="stroke" type="matrix" values="0 0 0 0 0 0 0 0 0 0 0 0 0 0 0 0 1 0 0 0 "></feColorMatrix><feColorMatrix in="SourceGraphic" result="fill" type="matrix" values="0 0 0 0 0 0 0 0 0 0 0 0 0 0 0 1 0 0 1 0 "></feColorMatrix><feConvolveMatrix in="stroke" result="inner-shadow" order="5,5" divisor="1" kernelMatrix="1 0 0 0 0 0 1 0 0 0 0 0 1 0 0 0 0 0 1 0 0 0 0 0 1 "></feConvolveMatrix><feOffset dx="1" dy="1" in="inner-shadow" result="offset"></feOffset><feComposite operator="in" in="offset" in2="SourceAlpha" result="comp"></feComposite><feFlood flood-color="#000" result="flood3"></feFlood><feComposite operator="in" in="flood3" in2="comp" result="comp2"></feComposite><feColorMatrix in="comp2" result="comp3" type="matrix" values="1 0 0 0 0 0 1 0 0 0 0 0 1 0 0 0 0 0 0.5 0 "></feColorMatrix><feFlood flood-color="#fffe00" result="flood1"></feFlood><feComposite operator="in" in="flood1" in2="fill" result="fill2"></feComposite><feFlood flood-color="#fff" result="flood2"></feFlood><feComposite operator="in" in="flood2" in2="stroke" result="stroke2"></feComposite><feMerge result="obj"><feMergeNode in="extrude-offset"></feMergeNode><feMergeNode in="fill2"></feMergeNode><feMergeNode in="comp3"></feMergeNode></feMerge><feConvolveMatrix in="SourceAlpha" result="shadow" order="3,3" divisor="1" kernelMatrix="1,0,0,0,1,0,0,0,1"></feConvolveMatrix><feOffset dx="6" dy="6" in="shadow" result="shadow-offset"></feOffset><feFlood flood-color="#444444" result="flood-shadow"></feFlood><feComposite operator="in" in="flood-shadow" in2="shadow-offset" result="shadow-color"></feComposite><feMerge><feMergeNode in="shadow-color"></feMergeNode><feMergeNode in="obj"></feMergeNode></feMerge></filter></defs><g transform="translate(-3,-3)"><g filter="url(#editing-vintage)"><g transform="translate(113.65000367164612, 98.9921875)"><path d="M14.14 0L0.51 0L7.81-38.91L8.51-42.24L22.21-42.24L14.14 0ZM40.13-3.78L40.13-3.78L40.13-3.78Q38.40 1.28 31.74 1.28L31.74 1.28L31.74 1.28Q26.82 1.28 23.42-4.61L23.42-4.61L23.42-4.61Q19.97-10.50 19.33-20.10L19.33-20.10L19.33-20.10Q26.37-32.96 31.23-38.27L31.23-38.27L31.23-38.27Q35.90-43.33 40.77-43.33L40.77-43.33L40.77-43.33Q43.39-43.33 45.28-41.92L45.28-41.92L45.28-41.92Q47.17-40.51 47.62-38.27L47.62-38.27L47.62-38.27Q45.44-37.38 44.42-36.67L44.42-36.67L44.42-36.67Q41.86-34.75 38.40-30.46L38.40-30.46L32.58-23.49L32.58-23.49Q31.17-21.82 30.59-21.06L30.59-21.06L30.59-21.06Q31.55-15.68 34.43-10.37L34.43-10.37L34.43-10.37Q37.18-5.31 40.13-3.78ZM60.93-3.52L60.93-3.52L60.93-3.52Q58.94 1.28 52.61 1.28L52.61 1.28L52.61 1.28Q49.34 1.28 47.30-0.96L47.30-0.96L47.30-0.96Q45.57-2.94 45.57-4.93L45.57-4.93L45.57-4.93Q45.57-10.11 47.94-20.22L47.94-20.22L50.30-32.64L63.30-33.92L59.39-13.70L59.39-13.70Q58.30-8.96 58.30-7.30L58.30-7.30L58.30-7.30Q58.30-3.65 60.93-3.52ZM51.46-41.54L51.46-41.54L51.46-41.54Q51.46-44.03 53.54-45.38L53.54-45.38L53.54-45.38Q55.62-46.72 58.62-46.72L58.62-46.72L58.62-46.72Q61.63-46.72 63.46-45.38L63.46-45.38L63.46-45.38Q65.28-44.03 65.28-41.54L65.28-41.54L65.28-41.54Q65.28-39.04 63.26-37.76L63.26-37.76L63.26-37.76Q61.25-36.48 58.24-36.48L58.24-36.48L58.24-36.48Q55.23-36.48 53.34-37.76L53.34-37.76L53.34-37.76Q51.46-39.04 51.46-41.54ZM81.66-3.52L81.66-3.52L81.66-3.52Q79.68 1.28 73.34 1.28L73.34 1.28L73.34 1.28Q70.14 1.28 68.10-0.96L68.10-0.96L68.10-0.96Q66.43-2.82 66.43-4.93L66.43-4.93L66.43-4.93Q66.43-9.73 68.67-20.22L68.67-20.22L73.34-44.80L86.34-46.08L80.13-13.70L80.13-13.70Q79.04-8.96 79.04-7.30L79.04-7.30L79.04-7.30Q79.04-3.65 81.66-3.52ZM102.40-3.52L102.40-3.52L102.40-3.52Q100.42 1.28 94.08 1.28L94.08 1.28L94.08 1.28Q90.88 1.28 88.83-0.96L88.83-0.96L88.83-0.96Q87.17-2.82 87.17-4.93L87.17-4.93L87.17-4.93Q87.17-9.73 89.41-20.22L89.41-20.22L94.08-44.80L107.07-46.08L100.86-13.70L100.86-13.70Q99.78-8.96 99.78-7.30L99.78-7.30L99.78-7.30Q99.78-3.65 102.40-3.52ZM133.76-10.82L133.76-10.82L133.76-10.82Q135.36-9.73 135.36-7.33L135.36-7.33L135.36-7.33Q135.36-4.93 134.14-3.39L134.14-3.39L134.14-3.39Q132.93-1.86 130.94-0.83L130.94-0.83L130.94-0.83Q126.85 1.28 122.43 1.28L122.43 1.28L122.43 1.28Q118.02 1.28 115.42 0.32L115.42 0.32L115.42 0.32Q112.83-0.64 111.10-2.43L111.10-2.43L111.10-2.43Q107.71-5.82 107.71-12.03L107.71-12.03L107.71-12.03Q107.71-21.70 112.96-27.58L112.96-27.58L112.96-27.58Q118.59-33.92 128.38-33.92L128.38-33.92L128.38-33.92Q134.46-33.92 137.47-31.36L137.47-31.36L137.47-31.36Q139.71-29.44 139.71-26.30L139.71-26.30L139.71-26.30Q139.71-15.04 120.26-15.04L120.26-15.04L120.26-15.04Q120.00-13.38 120.00-11.97L120.00-11.97L120.00-11.97Q120.00-9.02 121.31-7.90L121.31-7.90L121.31-7.90Q122.62-6.78 125.06-6.78L125.06-6.78L125.06-6.78Q127.49-6.78 130.08-7.90L130.08-7.90L130.08-7.90Q132.67-9.02 133.76-10.82ZM120.70-17.79L120.70-17.79L120.70-17.79Q125.25-17.79 127.87-20.61L127.87-20.61L127.87-20.61Q130.50-23.30 130.50-27.58L130.50-27.58L130.50-27.58Q130.50-29.06 129.95-29.86L129.95-29.86L129.95-29.86Q129.41-30.66 128.32-30.66L128.32-30.66L128.32-30.66Q127.23-30.66 126.30-30.24L126.30-30.24L126.30-30.24Q125.38-29.82 124.42-28.42L124.42-28.42L124.42-28.42Q122.05-25.22 120.70-17.79ZM161.92-17.98L161.92-17.98L161.92-17.98Q164.22-22.08 164.22-26.24L164.22-26.24L164.22-26.24Q164.22-28.99 162.24-28.99L162.24-28.99L162.24-28.99Q160.70-28.99 159.10-26.37L159.10-26.37L159.10-26.37Q157.44-23.74 156.93-20.35L156.93-20.35L153.60 0L140.35 1.28L146.88-32.64L157.44-33.92L156.29-27.46L156.29-27.46Q159.42-33.92 166.46-33.92L166.46-33.92L166.46-33.92Q170.18-33.92 172.19-32L172.19-32L172.19-32Q174.21-30.08 174.21-26.14L174.21-26.14L174.21-26.14Q174.21-22.21 171.62-19.71L171.62-19.71L171.62-19.71Q169.02-17.22 164.61-17.22L164.61-17.22L164.61-17.22Q162.69-17.22 161.92-17.98ZM187.78-0.32L187.78-0.32L195.84-42.24L195.84-42.24Q203.39-42.88 208.26-42.88L208.26-42.88L208.26-42.88Q213.12-42.88 216.26-42.46L216.26-42.46L216.26-42.46Q219.39-42.05 221.50-40.96L221.50-40.96L221.50-40.96Q225.73-38.91 225.73-33.28L225.73-33.28L225.73-33.28Q225.73-30.02 222.91-27.26L222.91-27.26L222.91-27.26Q220.29-24.77 217.41-24.19L217.41-24.19L217.41-24.19Q220.48-23.68 222.66-21.38L222.66-21.38L222.66-21.38Q224.96-18.94 224.96-15.17L224.96-15.17L224.96-15.17Q224.96-7.87 219.52-3.62L219.52-3.62L219.52-3.62Q214.08 0.64 203.39 0.64L203.39 0.64L203.39 0.64Q196.03 0.64 187.78-0.32ZM205.18-20.61L201.98-4.03L201.98-4.03Q202.56-3.97 202.69-3.97L202.69-3.97L203.26-3.97L203.26-3.97Q208.51-3.97 210.75-7.42L210.75-7.42L210.75-7.42Q212.42-10.11 212.42-15.04L212.42-15.04L212.42-15.04Q212.42-17.66 210.72-19.07L210.72-19.07L210.72-19.07Q209.02-20.48 205.18-20.61L205.18-20.61ZM214.91-33.22L214.91-33.22L214.91-33.22Q214.91-38.53 209.79-38.53L209.79-38.53L209.22-38.53L209.22-38.53Q208.96-38.53 208.58-38.46L208.58-38.46L206.02-24.96L206.66-24.96L206.66-24.96Q214.91-25.15 214.91-33.22ZM239.10-29.50L232.32-29.50L232.32-29.50Q234.69-37.70 234.82-46.34L234.82-46.34L236.67-46.59L236.67-46.59Q237.63-46.72 238.34-46.72L238.34-46.72L238.34-46.72Q241.15-46.72 242.69-45.34L242.69-45.34L242.69-45.34Q244.22-43.97 244.22-41.54L244.22-41.54L244.22-41.54Q244.22-38.98 243.07-36.16L243.07-36.16L243.07-36.16Q241.02-31.17 239.10-29.50L239.10-29.50ZM262.59-22.46L262.59-22.46L262.59-22.46Q263.49-24.83 263.49-26.88L263.49-26.88L263.49-26.88Q263.49-30.66 260.42-30.66L260.42-30.66L260.42-30.66Q258.82-30.66 257.50-29.22L257.50-29.22L257.50-29.22Q256.19-27.78 256.19-25.98L256.19-25.98L256.19-25.98Q256.19-24.70 257.22-23.68L257.22-23.68L257.22-23.68Q258.69-22.27 262.46-19.97L262.46-19.97L262.46-19.97Q266.24-17.66 267.68-15.78L267.68-15.78L267.68-15.78Q269.12-13.89 269.12-11.30L269.12-11.30L269.12-11.30Q269.12-8.70 267.87-6.34L267.87-6.34L267.87-6.34Q266.62-3.97 264.38-2.30L264.38-2.30L264.38-2.30Q259.58 1.28 251.90 1.28L251.90 1.28L251.90 1.28Q247.74 1.28 244.54-0.90L244.54-0.90L244.54-0.90Q241.34-3.01 241.34-5.50L241.34-5.50L241.34-5.50Q241.34-8 243.17-9.47L243.17-9.47L243.17-9.47Q244.99-10.94 247.68-10.94L247.68-10.94L247.68-10.94Q250.37-10.94 252.03-9.92L252.03-9.92L252.03-9.92Q251.20-7.81 251.20-6.40L251.20-6.40L251.20-6.40Q251.20-2.18 254.78-2.18L254.78-2.18L254.78-2.18Q256.32-2.18 257.34-3.14L257.34-3.14L257.34-3.14Q258.37-4.10 258.37-5.76L258.37-5.76L258.37-5.76Q258.37-9.02 252.86-12.48L252.86-12.48L252.86-12.48Q248.38-15.42 247.36-16.58L247.36-16.58L247.36-16.58Q245.63-18.62 245.63-21.18L245.63-21.18L245.63-21.18Q245.63-23.74 246.85-26.18L246.85-26.18L246.85-26.18Q248.06-28.61 250.30-30.34L250.30-30.34L250.30-30.34Q254.98-33.92 263.10-33.92L263.10-33.92L263.10-33.92Q267.26-33.92 269.73-32.26L269.73-32.26L269.73-32.26Q272.19-30.59 272.19-27.78L272.19-27.78L272.19-27.78Q272.19-24.96 270.50-23.36L270.50-23.36L270.50-23.36Q268.80-21.76 265.73-21.76L265.73-21.76L265.73-21.76Q263.62-21.76 262.59-22.46Z" fill="#f00" stroke="#0f0" stroke-width="1.8"></path></g></g><g><g transform="translate(113.65000367164612, 99)"><path d="M14.14 0L0.51 0L7.81-38.91L8.51-42.24L22.21-42.24L14.14 0ZM40.13-3.78L40.13-3.78L40.13-3.78Q38.40 1.28 31.74 1.28L31.74 1.28L31.74 1.28Q26.82 1.28 23.42-4.61L23.42-4.61L23.42-4.61Q19.97-10.50 19.33-20.10L19.33-20.10L19.33-20.10Q26.37-32.96 31.23-38.27L31.23-38.27L31.23-38.27Q35.90-43.33 40.77-43.33L40.77-43.33L40.77-43.33Q43.39-43.33 45.28-41.92L45.28-41.92L45.28-41.92Q47.17-40.51 47.62-38.27L47.62-38.27L47.62-38.27Q45.44-37.38 44.42-36.67L44.42-36.67L44.42-36.67Q41.86-34.75 38.40-30.46L38.40-30.46L32.58-23.49L32.58-23.49Q31.17-21.82 30.59-21.06L30.59-21.06L30.59-21.06Q31.55-15.68 34.43-10.37L34.43-10.37L34.43-10.37Q37.18-5.31 40.13-3.78ZM60.93-3.52L60.93-3.52L60.93-3.52Q58.94 1.28 52.61 1.28L52.61 1.28L52.61 1.28Q49.34 1.28 47.30-0.96L47.30-0.96L47.30-0.96Q45.57-2.94 45.57-4.93L45.57-4.93L45.57-4.93Q45.57-10.11 47.94-20.22L47.94-20.22L50.30-32.64L63.30-33.92L59.39-13.70L59.39-13.70Q58.30-8.96 58.30-7.30L58.30-7.30L58.30-7.30Q58.30-3.65 60.93-3.52ZM51.46-41.54L51.46-41.54L51.46-41.54Q51.46-44.03 53.54-45.38L53.54-45.38L53.54-45.38Q55.62-46.72 58.62-46.72L58.62-46.72L58.62-46.72Q61.63-46.72 63.46-45.38L63.46-45.38L63.46-45.38Q65.28-44.03 65.28-41.54L65.28-41.54L65.28-41.54Q65.28-39.04 63.26-37.76L63.26-37.76L63.26-37.76Q61.25-36.48 58.24-36.48L58.24-36.48L58.24-36.48Q55.23-36.48 53.34-37.76L53.34-37.76L53.34-37.76Q51.46-39.04 51.46-41.54ZM81.66-3.52L81.66-3.52L81.66-3.52Q79.68 1.28 73.34 1.28L73.34 1.28L73.34 1.28Q70.14 1.28 68.10-0.96L68.10-0.96L68.10-0.96Q66.43-2.82 66.43-4.93L66.43-4.93L66.43-4.93Q66.43-9.73 68.67-20.22L68.67-20.22L73.34-44.80L86.34-46.08L80.13-13.70L80.13-13.70Q79.04-8.96 79.04-7.30L79.04-7.30L79.04-7.30Q79.04-3.65 81.66-3.52ZM102.40-3.52L102.40-3.52L102.40-3.52Q100.42 1.28 94.08 1.28L94.08 1.28L94.08 1.28Q90.88 1.28 88.83-0.96L88.83-0.96L88.83-0.96Q87.17-2.82 87.17-4.93L87.17-4.93L87.17-4.93Q87.17-9.73 89.41-20.22L89.41-20.22L94.08-44.80L107.07-46.08L100.86-13.70L100.86-13.70Q99.78-8.96 99.78-7.30L99.78-7.30L99.78-7.30Q99.78-3.65 102.40-3.52ZM133.76-10.82L133.76-10.82L133.76-10.82Q135.36-9.73 135.36-7.33L135.36-7.33L135.36-7.33Q135.36-4.93 134.14-3.39L134.14-3.39L134.14-3.39Q132.93-1.86 130.94-0.83L130.94-0.83L130.94-0.83Q126.85 1.28 122.43 1.28L122.43 1.28L122.43 1.28Q118.02 1.28 115.42 0.32L115.42 0.32L115.42 0.32Q112.83-0.64 111.10-2.43L111.10-2.43L111.10-2.43Q107.71-5.82 107.71-12.03L107.71-12.03L107.71-12.03Q107.71-21.70 112.96-27.58L112.96-27.58L112.96-27.58Q118.59-33.92 128.38-33.92L128.38-33.92L128.38-33.92Q134.46-33.92 137.47-31.36L137.47-31.36L137.47-31.36Q139.71-29.44 139.71-26.30L139.71-26.30L139.71-26.30Q139.71-15.04 120.26-15.04L120.26-15.04L120.26-15.04Q120.00-13.38 120.00-11.97L120.00-11.97L120.00-11.97Q120.00-9.02 121.31-7.90L121.31-7.90L121.31-7.90Q122.62-6.78 125.06-6.78L125.06-6.78L125.06-6.78Q127.49-6.78 130.08-7.90L130.08-7.90L130.08-7.90Q132.67-9.02 133.76-10.82ZM120.70-17.79L120.70-17.79L120.70-17.79Q125.25-17.79 127.87-20.61L127.87-20.61L127.87-20.61Q130.50-23.30 130.50-27.58L130.50-27.58L130.50-27.58Q130.50-29.06 129.95-29.86L129.95-29.86L129.95-29.86Q129.41-30.66 128.32-30.66L128.32-30.66L128.32-30.66Q127.23-30.66 126.30-30.24L126.30-30.24L126.30-30.24Q125.38-29.82 124.42-28.42L124.42-28.42L124.42-28.42Q122.05-25.22 120.70-17.79ZM161.92-17.98L161.92-17.98L161.92-17.98Q164.22-22.08 164.22-26.24L164.22-26.24L164.22-26.24Q164.22-28.99 162.24-28.99L162.24-28.99L162.24-28.99Q160.70-28.99 159.10-26.37L159.10-26.37L159.10-26.37Q157.44-23.74 156.93-20.35L156.93-20.35L153.60 0L140.35 1.28L146.88-32.64L157.44-33.92L156.29-27.46L156.29-27.46Q159.42-33.92 166.46-33.92L166.46-33.92L166.46-33.92Q170.18-33.92 172.19-32L172.19-32L172.19-32Q174.21-30.08 174.21-26.14L174.21-26.14L174.21-26.14Q174.21-22.21 171.62-19.71L171.62-19.71L171.62-19.71Q169.02-17.22 164.61-17.22L164.61-17.22L164.61-17.22Q162.69-17.22 161.92-17.98ZM187.78-0.32L187.78-0.32L195.84-42.24L195.84-42.24Q203.39-42.88 208.26-42.88L208.26-42.88L208.26-42.88Q213.12-42.88 216.26-42.46L216.26-42.46L216.26-42.46Q219.39-42.05 221.50-40.96L221.50-40.96L221.50-40.96Q225.73-38.91 225.73-33.28L225.73-33.28L225.73-33.28Q225.73-30.02 222.91-27.26L222.91-27.26L222.91-27.26Q220.29-24.77 217.41-24.19L217.41-24.19L217.41-24.19Q220.48-23.68 222.66-21.38L222.66-21.38L222.66-21.38Q224.96-18.94 224.96-15.17L224.96-15.17L224.96-15.17Q224.96-7.87 219.52-3.62L219.52-3.62L219.52-3.62Q214.08 0.64 203.39 0.64L203.39 0.64L203.39 0.64Q196.03 0.64 187.78-0.32ZM205.18-20.61L201.98-4.03L201.98-4.03Q202.56-3.97 202.69-3.97L202.69-3.97L203.26-3.97L203.26-3.97Q208.51-3.97 210.75-7.42L210.75-7.42L210.75-7.42Q212.42-10.11 212.42-15.04L212.42-15.04L212.42-15.04Q212.42-17.66 210.72-19.07L210.72-19.07L210.72-19.07Q209.02-20.48 205.18-20.61L205.18-20.61ZM214.91-33.22L214.91-33.22L214.91-33.22Q214.91-38.53 209.79-38.53L209.79-38.53L209.22-38.53L209.22-38.53Q208.96-38.53 208.58-38.46L208.58-38.46L206.02-24.96L206.66-24.96L206.66-24.96Q214.91-25.15 214.91-33.22ZM239.10-29.50L232.32-29.50L232.32-29.50Q234.69-37.70 234.82-46.34L234.82-46.34L236.67-46.59L236.67-46.59Q237.63-46.72 238.34-46.72L238.34-46.72L238.34-46.72Q241.15-46.72 242.69-45.34L242.69-45.34L242.69-45.34Q244.22-43.97 244.22-41.54L244.22-41.54L244.22-41.54Q244.22-38.98 243.07-36.16L243.07-36.16L243.07-36.16Q241.02-31.17 239.10-29.50L239.10-29.50ZM262.59-22.46L262.59-22.46L262.59-22.46Q263.49-24.83 263.49-26.88L263.49-26.88L263.49-26.88Q263.49-30.66 260.42-30.66L260.42-30.66L260.42-30.66Q258.82-30.66 257.50-29.22L257.50-29.22L257.50-29.22Q256.19-27.78 256.19-25.98L256.19-25.98L256.19-25.98Q256.19-24.70 257.22-23.68L257.22-23.68L257.22-23.68Q258.69-22.27 262.46-19.97L262.46-19.97L262.46-19.97Q266.24-17.66 267.68-15.78L267.68-15.78L267.68-15.78Q269.12-13.89 269.12-11.30L269.12-11.30L269.12-11.30Q269.12-8.70 267.87-6.34L267.87-6.34L267.87-6.34Q266.62-3.97 264.38-2.30L264.38-2.30L264.38-2.30Q259.58 1.28 251.90 1.28L251.90 1.28L251.90 1.28Q247.74 1.28 244.54-0.90L244.54-0.90L244.54-0.90Q241.34-3.01 241.34-5.50L241.34-5.50L241.34-5.50Q241.34-8 243.17-9.47L243.17-9.47L243.17-9.47Q244.99-10.94 247.68-10.94L247.68-10.94L247.68-10.94Q250.37-10.94 252.03-9.92L252.03-9.92L252.03-9.92Q251.20-7.81 251.20-6.40L251.20-6.40L251.20-6.40Q251.20-2.18 254.78-2.18L254.78-2.18L254.78-2.18Q256.32-2.18 257.34-3.14L257.34-3.14L257.34-3.14Q258.37-4.10 258.37-5.76L258.37-5.76L258.37-5.76Q258.37-9.02 252.86-12.48L252.86-12.48L252.86-12.48Q248.38-15.42 247.36-16.58L247.36-16.58L247.36-16.58Q245.63-18.62 245.63-21.18L245.63-21.18L245.63-21.18Q245.63-23.74 246.85-26.18L246.85-26.18L246.85-26.18Q248.06-28.61 250.30-30.34L250.30-30.34L250.30-30.34Q254.98-33.92 263.10-33.92L263.10-33.92L263.10-33.92Q267.26-33.92 269.73-32.26L269.73-32.26L269.73-32.26Q272.19-30.59 272.19-27.78L272.19-27.78L272.19-27.78Q272.19-24.96 270.50-23.36L270.50-23.36L270.50-23.36Q268.80-21.76 265.73-21.76L265.73-21.76L265.73-21.76Q263.62-21.76 262.59-22.46Z" fill="none" stroke="#fff" stroke-width="2.1"></path></g></g></g><style>text {
  font-size: 64px;
  font-family: Arial Black;
  dominant-baseline: central;
  text-anchor: middle;
}</style></svg>